<svg width="110" height="148" viewBox="0 0 110 148" fill="none" xmlns="http://www.w3.org/2000/svg">
<g id="Isolation_Mode" clip-path="url(#clip0_127_9009)">
<path id="Vector" d="M139.436 86.3387C138.666 82.3002 130.166 69.6172 121.819 62.7893C113.471 55.9613 97.8817 50.8138 78.7189 46.9671C63.4638 43.9092 49.5289 32.2062 50.4363 22.3563C50.4866 21.8775 50.4087 21.3939 50.2107 20.955C50.0127 20.5162 49.7016 20.1378 49.3093 19.8587C48.917 19.5797 48.4576 19.4098 47.9781 19.3667C47.4986 19.3236 47.0163 19.4087 46.5805 19.6133C38.4961 23.4361 31.3966 29.0629 25.8283 36.0604C20.2601 43.058 16.3715 51.2398 14.4619 59.9762C7.62742 92.3537 30.0519 124.562 64.5694 131.848C99.087 139.134 132.587 118.785 139.433 86.356L139.436 86.3387Z" fill="#74FAB9" stroke="black" stroke-width="2" stroke-miterlimit="10"/>
<path id="Vector_2" d="M115.523 44.5321L80.0098 16.3398C80.0098 16.3398 63.6233 3.86705 51.5505 14.515C39.4777 25.1629 51.1436 41.3806 72.0895 47.3704C91.3523 52.8788 112.34 56.1913 120.897 63.2256C129.454 70.2599 137.941 82.4896 138.728 86.6217C139.514 90.7538 142.633 67.1829 130.535 57.1116L115.523 44.5321Z" fill="#36D688" stroke="black" stroke-width="2" stroke-miterlimit="10"/>
<path id="Vector_3" d="M34.0551 65.969C35.7803 66.3331 37.634 64.4725 38.1954 61.8132C38.7567 59.1538 37.8132 56.7027 36.088 56.3385C34.3627 55.9744 32.509 57.835 31.9477 60.4943C31.3863 63.1537 32.3298 65.6048 34.0551 65.969Z" fill="black"/>
<path id="Vector_4" d="M47.8966 68.8907C49.6219 69.2549 51.4756 67.3943 52.0369 64.7349C52.5983 62.0756 51.6548 59.6245 49.9295 59.2603C48.2043 58.8961 46.3506 60.7568 45.7892 63.4161C45.2279 66.0755 46.1714 68.5266 47.8966 68.8907Z" fill="black"/>
</g>
<defs>
<clipPath id="clip0_127_9009">
<rect width="131.253" height="122.592" fill="white" transform="translate(25.3193) rotate(11.9195)"/>
</clipPath>
</defs>
</svg>
