<svg width="327" height="165" viewBox="0 0 327 165" fill="none" xmlns="http://www.w3.org/2000/svg">
<g clip-path="url(#clip0_127_8888)">
<path d="M0 18.6006C0 15.7441 3.25147 14.1042 5.54853 15.8022C6.18998 16.2763 6.64905 16.9565 6.84891 17.7287L8.73018 24.998C9.76641 29.002 5.24284 32.1203 1.86942 29.7274C0.696783 28.8956 0 27.547 0 26.1093V18.6006Z" fill="#E4F5F0"/>
<path d="M43.1641 43.4222C43.1641 41.2748 44.5354 39.3673 46.571 38.6833L47.0366 38.5269C50.2759 37.4385 53.6281 39.8485 53.6281 43.2658C53.6281 45.4132 52.2567 47.3207 50.2211 48.0046L49.7556 48.1611C46.5162 49.2495 43.1641 46.8395 43.1641 43.4222Z" fill="#E4F5F0"/>
<path d="M98.972 11.8723C98.972 11.2074 99.2709 10.5778 99.786 10.1575L104.515 6.29826C105.961 5.11862 108.128 6.14724 108.128 8.0131C108.128 8.67796 107.829 9.3076 107.314 9.72794L102.585 13.5871C101.139 14.7668 98.972 13.7382 98.972 11.8723Z" fill="#E4F5F0"/>
<path d="M111.195 68.9014C108.331 68.0766 107.921 64.1878 110.551 62.7847L116.969 59.3598C117.73 58.9534 118.62 58.8597 119.449 59.0986C122.313 59.9234 122.723 63.8121 120.093 65.2153L113.675 68.6402C112.914 69.0465 112.024 69.1402 111.195 68.9014Z" fill="#4CB998"/>
<path d="M155.652 31.8703C155.652 30.2779 156.536 28.8171 157.946 28.0778L160.282 26.8532C163.133 25.3588 166.552 27.4267 166.552 30.6457C166.552 32.238 165.668 33.6989 164.258 34.4381L161.922 35.6627C159.071 37.1571 155.652 35.0892 155.652 31.8703Z" fill="#78E4C3"/>
<path d="M198.38 -0.0365291C198.38 -1.79652 200.543 -2.63746 201.732 -1.33948L203.106 0.160327C203.431 0.516062 203.612 0.980922 203.612 1.46328C203.612 3.22328 201.449 4.06421 200.26 2.76623L198.886 1.26642C198.561 0.910689 198.38 0.445829 198.38 -0.0365291Z" fill="#E4F5F0"/>
<path d="M221.924 58.7967C221.924 56.1032 223.574 53.6845 226.082 52.7015L228.684 51.6813C232.978 49.998 237.62 53.1642 237.62 57.7766C237.62 60.4701 235.97 62.8887 233.463 63.8718L230.86 64.8919C226.566 66.5752 221.924 63.409 221.924 58.7967Z" fill="#EAF7F3"/>
<path d="M246.34 68.3371C246.34 65.8769 248.606 64.0414 251.012 64.5521L251.558 64.6679C253.345 65.0472 254.624 66.6254 254.624 68.4528C254.624 70.913 252.358 72.7485 249.951 72.2378L249.406 72.122C247.618 71.7427 246.34 70.1644 246.34 68.3371Z" fill="#4CB998"/>
<path d="M309.124 63.3658C309.124 60.8781 311.94 59.4355 313.959 60.889C314.756 61.4626 315.228 62.3842 315.228 63.3658V63.7551C315.228 66.2428 312.412 67.6855 310.393 66.2319C309.596 65.6583 309.124 64.7367 309.124 63.7551V63.3658Z" fill="#E4F5F0"/>
<path d="M269.356 114.086C269.414 113.269 269.865 112.531 270.565 112.108L271.827 111.345C273.575 110.287 275.789 111.641 275.644 113.679C275.586 114.495 275.135 115.233 274.435 115.656L273.173 116.42C271.425 117.477 269.211 116.124 269.356 114.086Z" fill="#78E4C3"/>
<path d="M327 132.256C327 130.777 326.349 129.372 325.22 128.416L324.382 127.707C321.113 124.939 316.1 127.262 316.1 131.547C316.1 133.026 316.751 134.43 317.88 135.386L318.718 136.096C321.987 138.864 327 136.54 327 132.256Z" fill="#E4F5F0"/>
<path d="M283.963 24.2066C283.89 22.0624 285.378 20.1797 287.481 19.7557C290.138 19.22 292.64 21.1977 292.733 23.9066L292.865 27.7616C292.938 29.9058 291.45 31.7886 289.347 32.2126C286.69 32.7483 284.188 30.7705 284.095 28.0616L283.963 24.2066Z" fill="#E4F5F0"/>
<path d="M180.48 69.4604C180.958 68.0017 182.373 67.0667 183.9 67.2001C186.033 67.3864 187.44 69.5224 186.772 71.5596L184.928 77.1827C184.449 78.6414 183.035 79.5764 181.507 79.443C179.374 79.2567 177.967 77.1208 178.636 75.0835L180.48 69.4604Z" fill="#E4F5F0"/>
<path d="M142.837 105.412C142.104 104.623 141.956 103.448 142.47 102.498C143.283 100.997 145.315 100.735 146.473 101.984L151.532 107.435C152.265 108.225 152.413 109.399 151.899 110.349C151.086 111.851 149.054 112.112 147.896 110.864L142.837 105.412Z" fill="#E4F5F0"/>
<path d="M166.116 78.2851C166.116 75.1525 169.189 72.9434 172.158 73.9411L177.381 75.6959C179.247 76.3229 180.504 78.0715 180.504 80.0399C180.504 83.1724 177.431 85.3816 174.462 84.3839L169.239 82.629C167.373 82.0021 166.116 80.2535 166.116 78.2851Z" fill="#5CDEB7"/>
<path d="M103.532 72.2084C103.407 71.2013 102.779 70.3269 101.864 69.8878L99.0959 68.5591C96.9702 67.5388 94.5574 69.2734 94.8476 71.6134C94.9725 72.6205 95.6011 73.4949 96.516 73.934L99.284 75.2627C101.41 76.283 103.823 74.5483 103.532 72.2084Z" fill="#E4F5F0"/>
<path d="M18.748 94.4584C18.748 91.0437 22.2155 88.7228 25.3724 90.0246C27.1683 90.7652 28.34 92.5159 28.34 94.4584V94.6307C28.34 98.0455 24.8726 100.366 21.7157 99.0645C19.9198 98.3239 18.748 96.5732 18.748 94.6307V94.4584Z" fill="#78E4C3"/>
<path d="M50.14 138.719C50.14 137.874 50.4899 137.067 51.1064 136.49C53.0562 134.665 56.244 136.048 56.244 138.719V140.906C56.244 141.75 55.8941 142.557 55.2776 143.134C53.3278 144.959 50.14 143.576 50.14 140.906V138.719Z" fill="#E4F5F0"/>
<g clip-path="url(#clip1_127_8888)">
<path d="M147.962 100.109L148.842 136.955C148.842 136.955 139.66 136.674 137.661 142.565C136.18 147.095 140.694 151.78 146.131 151.625C151.568 151.471 154.419 151.331 154.419 151.331C154.419 151.331 162.064 151.036 162.302 144.402C162.414 141.232 160.778 101.596 160.778 101.596" fill="#74FAB9"/>
<path d="M147.962 100.109L148.842 136.955C148.842 136.955 139.66 136.674 137.661 142.565C136.18 147.095 140.694 151.78 146.131 151.625C151.568 151.471 154.419 151.331 154.419 151.331C154.419 151.331 162.064 151.036 162.302 144.402C162.414 141.232 160.778 101.596 160.778 101.596" stroke="black" stroke-width="2" stroke-linecap="round" stroke-linejoin="round"/>
<path d="M152.658 137.684L148.87 136.885" stroke="black" stroke-width="2" stroke-linecap="round" stroke-linejoin="round"/>
<path d="M181.939 99.969L182.316 136.828C182.316 136.828 191.485 136.225 193.623 142.088C195.259 146.562 190.912 151.401 185.461 151.429C180.01 151.457 177.173 151.429 177.173 151.429C177.173 151.429 169.514 151.429 169.067 144.781C168.843 141.625 169.067 101.961 169.067 101.961" fill="#74FAB9"/>
<path d="M181.939 99.969L182.316 136.828C182.316 136.828 191.485 136.225 193.623 142.088C195.259 146.562 190.912 151.401 185.461 151.429C180.01 151.457 177.173 151.429 177.173 151.429C177.173 151.429 169.514 151.429 169.067 144.781C168.843 141.625 169.067 101.961 169.067 101.961" stroke="black" stroke-width="2" stroke-linecap="round" stroke-linejoin="round"/>
<path d="M178.557 137.74L182.302 136.828" stroke="black" stroke-width="2" stroke-linecap="round" stroke-linejoin="round"/>
<path d="M214.602 60.4166C213.344 57.4151 204.679 48.9436 197.09 44.9884C189.5 41.0332 176.572 39.6026 161.086 39.7568C148.759 39.8831 136.04 33.0666 135.131 25.2403C135.09 24.8607 134.949 24.499 134.723 24.192C134.496 23.8849 134.193 23.6435 133.844 23.4924C133.494 23.3413 133.111 23.2859 132.733 23.3318C132.355 23.3777 131.996 23.5233 131.693 23.7537C126.053 28.0541 121.471 33.5954 118.299 39.9513C115.127 46.3073 113.451 53.3085 113.398 60.4166C113.398 86.7428 136.054 108.104 164.007 108.104C191.96 108.104 214.602 86.7709 214.602 60.4166Z" fill="#74FAB9" stroke="black" stroke-width="2" stroke-miterlimit="10"/>
<path d="M189.221 31.8322L157.144 15.7308C157.144 15.7308 142.399 8.71802 134.782 18.9848C127.165 29.2516 138.863 39.9531 156.082 41.1733C171.918 42.2954 188.732 41.4259 196.517 45.4933C204.302 49.5608 212.883 57.6815 214.169 60.7671C215.455 63.8528 214.015 45.0024 202.988 39.1397L189.221 31.8322Z" fill="#36D688" stroke="black" stroke-width="2" stroke-miterlimit="10"/>
<path d="M157.13 61.8893C158.528 61.8893 159.66 60.1373 159.66 57.9761C159.66 55.815 158.528 54.063 157.13 54.063C155.733 54.063 154.601 55.815 154.601 57.9761C154.601 60.1373 155.733 61.8893 157.13 61.8893Z" fill="black"/>
<path d="M170.869 61.8893C172.267 61.8893 173.399 60.1373 173.399 57.9761C173.399 55.815 172.267 54.063 170.869 54.063C169.472 54.063 168.34 55.815 168.34 57.9761C168.34 60.1373 169.472 61.8893 170.869 61.8893Z" fill="black"/>
</g>
</g>
<defs>
<clipPath id="clip0_127_8888">
<rect width="327" height="165" fill="white"/>
</clipPath>
<clipPath id="clip1_127_8888">
<rect width="104" height="141" fill="white" transform="translate(112 12)"/>
</clipPath>
</defs>
</svg>
