<svg width="24" height="24" viewBox="0 0 24 24" fill="none" xmlns="http://www.w3.org/2000/svg">
<g id="fluent:temperature-48-regular">
<path id="Vector" d="M12 4.25C11.5359 4.25 11.0908 4.43437 10.7626 4.76256C10.4344 5.09075 10.25 5.53587 10.25 6V13.8935L10.021 14.0815C9.52213 14.4897 9.1617 15.0422 8.9891 15.6633C8.81651 16.2843 8.8402 16.9436 9.05692 17.5507C9.27364 18.1578 9.6728 18.683 10.1997 19.0543C10.7266 19.4257 11.3554 19.625 12 19.625C12.6446 19.625 13.2734 19.4257 13.8003 19.0543C14.3272 18.683 14.7264 18.1578 14.9431 17.5507C15.1598 16.9436 15.1835 16.2843 15.0109 15.6633C14.8383 15.0422 14.4779 14.4897 13.979 14.0815L13.75 13.8935V6C13.75 5.77019 13.7047 5.54262 13.6168 5.3303C13.5288 5.11798 13.3999 4.92507 13.2374 4.76256C13.0749 4.60006 12.882 4.47116 12.6697 4.38321C12.4574 4.29526 12.2298 4.25 12 4.25ZM9 6C9 5.20435 9.31607 4.44129 9.87868 3.87868C10.4413 3.31607 11.2044 3 12 3C12.7957 3 13.5587 3.31607 14.1213 3.87868C14.6839 4.44129 15 5.20435 15 6V13.3155C15.6379 13.9165 16.0806 14.6952 16.2708 15.5507C16.4609 16.4062 16.3898 17.2991 16.0665 18.1137C15.7432 18.9283 15.1827 19.6271 14.4577 20.1194C13.7326 20.6117 12.8764 20.8749 12 20.8749C11.1236 20.8749 10.2674 20.6117 9.54234 20.1194C8.81728 19.6271 8.2568 18.9283 7.93352 18.1137C7.61024 17.2991 7.53907 16.4062 7.72922 15.5507C7.91938 14.6952 8.36209 13.9165 9 13.3155V6ZM14 16.5C14 16.8685 13.8981 17.2299 13.7057 17.5442C13.5133 17.8585 13.2377 18.1135 12.9095 18.2811C12.5813 18.4487 12.2131 18.5223 11.8457 18.4939C11.4783 18.4654 11.1259 18.3361 10.8273 18.12C10.5288 17.9039 10.2958 17.6095 10.154 17.2694C10.0122 16.9292 9.96712 16.5565 10.0238 16.1924C10.0804 15.8282 10.2366 15.4868 10.475 15.2058C10.7135 14.9248 11.0249 14.7152 11.375 14.6V9.125C11.375 8.95924 11.4408 8.80027 11.5581 8.68306C11.6753 8.56585 11.8342 8.5 12 8.5C12.1658 8.5 12.3247 8.56585 12.4419 8.68306C12.5592 8.80027 12.625 8.95924 12.625 9.125V14.6C13.025 14.7317 13.3732 14.9863 13.62 15.3274C13.8669 15.6686 13.9999 16.0789 14 16.5Z" fill="#171717"/>
</g>
</svg>
