<svg width="26" height="26" viewBox="0 0 26 26" fill="none" xmlns="http://www.w3.org/2000/svg">
<g id="name=navi_2, State=on">
<path id="Vector" d="M19.6727 10.4939C19.6727 6.35519 16.8363 3 13.3372 3C9.83807 3 7.00002 6.35519 7.00002 10.4939C6.99799 11.3679 7.12755 12.2372 7.38429 13.0721C8.75528 17.8926 12.3896 22.2083 12.3896 22.2083C12.5023 22.3528 12.6462 22.4697 12.8103 22.55C12.9745 22.6304 13.1547 22.6721 13.3372 22.6721C13.5197 22.6721 13.6999 22.6304 13.8641 22.55C14.0282 22.4697 14.1721 22.3528 14.2848 22.2083C14.2848 22.2083 17.9175 17.8926 19.2885 13.0721C19.5452 12.2372 19.6748 11.3679 19.6727 10.4939Z" fill="#74FAB9" stroke="#171717" stroke-width="1.5" stroke-linecap="round" stroke-linejoin="round"/>
</g>
</svg>
