<svg width="26" height="26" viewBox="0 0 26 26" fill="none" xmlns="http://www.w3.org/2000/svg">
<path d="M12.2805 21.8681L21.8657 12.2829C22.1031 12.0436 22.2733 11.7462 22.3593 11.4203C22.4452 11.0945 22.4439 10.7517 22.3555 10.4266C21.909 8.78083 21.0375 7.28147 19.8284 6.07897C18.6194 4.87647 17.1153 4.01312 15.4672 3.57555C13.819 3.13798 12.0848 3.14157 10.4385 3.58598C8.79223 4.0304 7.29177 4.90001 6.08773 6.10752C4.88369 7.31503 4.01842 8.81797 3.57874 10.4655C3.13906 12.1131 3.14045 13.8473 3.58276 15.4942C4.02507 17.1411 4.89276 18.6426 6.09873 19.8482C7.3047 21.0538 8.80655 21.921 10.4536 22.3628C10.7747 22.4486 11.1127 22.4481 11.4336 22.3612C11.7544 22.2744 12.0466 22.1042 12.2805 21.8681Z" fill="#74FAB9" stroke="#171717" stroke-width="1.5" stroke-miterlimit="10"/>
<path d="M22.2086 11.7245C22.2346 11.6984 22.2528 11.6654 22.2609 11.6294C22.2691 11.5934 22.2669 11.5558 22.2546 11.521C22.2423 11.4862 22.2204 11.4556 22.1915 11.4326C22.1626 11.4097 22.1277 11.3954 22.091 11.3914C21.7509 11.3562 21.4093 11.3383 21.0674 11.3375C19.7909 11.3369 18.5267 11.5878 17.3472 12.0759C16.1676 12.5639 15.0958 13.2796 14.1929 14.182C13.2901 15.0844 12.5739 16.1559 12.0852 17.3352C11.5965 18.5145 11.345 19.7785 11.345 21.055C11.3456 21.3986 11.3636 21.7418 11.3989 22.0836C11.4029 22.1203 11.4172 22.1551 11.4401 22.184C11.463 22.2129 11.4937 22.2348 11.5285 22.2471C11.5633 22.2594 11.6008 22.2616 11.6368 22.2535C11.6728 22.2453 11.7058 22.2272 11.732 22.2011L22.2086 11.7245Z" fill="white" stroke="#171717" stroke-width="1.5" stroke-miterlimit="10"/>
</svg>
