<svg width="40" height="40" viewBox="0 0 40 40" fill="none" xmlns="http://www.w3.org/2000/svg">
<g clip-path="url(#clip0_100_6295)">
<circle cx="20" cy="20" r="17" fill="#74FAB9" stroke="white" stroke-width="5"/>
<circle cx="20" cy="20" r="17" fill="#74FAB9" stroke="#171717" stroke-width="1.5"/>
<path d="M15.5 12V14.5M19.5 12V14.5M23.5 12V14.5" stroke="black" stroke-width="1.5" stroke-linecap="round" stroke-linejoin="round"/>
<path d="M12 18C12 17.4477 12.4477 17 13 17H26C26.5523 17 27 17.4477 27 18V24C27 26.7614 24.7614 29 22 29H17C14.2386 29 12 26.7614 12 24V18Z" stroke="black" stroke-width="1.5"/>
<path d="M27 18C28.3333 17.8333 31 18.2 31 21C31 23.8 28.3333 24.5 27 24.5" stroke="black" stroke-width="1.5" stroke-linecap="round" stroke-linejoin="round"/>
</g>
<defs>
<clipPath id="clip0_100_6295">
<rect width="40" height="40" fill="white"/>
</clipPath>
</defs>
</svg>
