<svg width="187" height="317" viewBox="0 0 187 317" fill="none" xmlns="http://www.w3.org/2000/svg">
<g clip-path="url(#clip0_100_6251)">
<path d="M193.388 242.258C189.536 240.503 185.384 239.502 181.155 239.311C165.669 237.628 150.734 232.6 137.384 224.573C139.595 219.857 141.629 215.435 143.456 211.545C191.796 202.024 228.11 161.761 228.11 113.539V113.392C228.11 106.465 222.48 78.7583 203.704 68.8251L174.671 53.4686L107.025 19.6307C107.025 19.6307 75.9284 4.89309 59.8644 26.469C57.7833 29.1817 56.2787 32.2912 55.4431 35.6065C54.6756 35.6965 53.9497 36.0032 53.3502 36.4907C41.4507 45.5236 31.7838 57.1678 25.0945 70.5261C18.4051 83.8844 14.872 98.5999 14.7671 113.539C14.7671 159.079 47.19 197.485 91.403 209.658C93.6951 218.11 97.4564 226.091 102.515 233.239L86.2153 267.636C86.2153 267.636 69.2079 258.352 59.9232 267.636C52.8491 274.71 56.9758 287.797 67.2627 292.69C77.5496 297.583 83.1498 300.059 83.1498 300.059C83.1498 300.059 97.8875 306.809 104.549 294.577C105.934 292.071 114.718 273.384 124.297 252.899C135.351 259.065 147.548 262.906 160.139 264.188C160.139 264.188 147.613 286.972 163.441 290.716C179.269 294.459 189.703 280.163 200.58 262.272C207.123 251.366 200.108 245.353 193.388 242.258Z" fill="#171717" stroke="#74FAB9" stroke-width="29.4753" stroke-linecap="round" stroke-linejoin="round"/>
<path d="M88.8682 189.143C88.8682 189.143 86.4218 255.021 160.493 264.04C160.493 264.04 147.937 286.825 163.795 290.568C179.652 294.312 190.028 280.016 200.933 262.124C207.448 251.395 200.432 245.382 193.771 242.288C189.92 240.532 185.767 239.531 181.539 239.34C165.704 237.496 150.451 232.267 136.816 224.008C123.181 215.749 111.483 204.652 102.515 191.472" fill="#74FAB9"/>
<path d="M88.8682 189.143C88.8682 189.143 86.4218 255.021 160.493 264.04C160.493 264.04 147.937 286.825 163.795 290.568C179.652 294.311 190.028 280.016 200.933 262.124C207.448 251.395 200.432 245.382 193.771 242.288C189.92 240.532 185.767 239.531 181.539 239.34C165.704 237.496 150.451 232.267 136.816 224.008C123.181 215.749 111.483 204.652 102.515 191.472" stroke="#171717" stroke-width="5.89507" stroke-linecap="round" stroke-linejoin="round"/>
<path d="M228.522 113.539C225.84 107.231 207.565 89.4281 191.59 81.116C175.614 72.804 148.29 69.7681 115.661 70.1218C89.6639 70.3871 62.8413 56.0621 60.8959 39.6149C60.814 38.8176 60.5211 38.0566 60.0473 37.4102C59.5736 36.7637 58.9362 36.2552 58.2006 35.9369C57.4651 35.6187 56.6579 35.5022 55.8624 35.5994C55.0669 35.6967 54.3116 36.0044 53.6744 36.4905C41.7749 45.5234 32.1082 57.1676 25.4188 70.5258C18.7295 83.8841 15.1962 98.5997 15.0913 113.539C15.0913 168.864 62.8709 213.755 121.792 213.755C180.713 213.755 228.522 168.923 228.522 113.539Z" fill="#74FAB9" stroke="#171717" stroke-width="5.89507" stroke-miterlimit="10"/>
<path d="M174.995 53.4686L107.202 19.6307C107.202 19.6307 76.1054 4.89309 60.0414 26.469C43.9773 48.045 68.6481 70.6821 104.962 73.0991C138.357 75.4571 173.816 73.6296 190.204 82.148C206.593 90.6664 224.72 107.791 227.461 114.276C230.202 120.761 227.108 81.1458 203.881 68.8251L174.995 53.4686Z" fill="#36D688" stroke="#171717" stroke-width="5.89507" stroke-miterlimit="10"/>
<path d="M119.847 197.603L86.569 267.636C86.569 267.636 69.5323 258.352 60.2771 267.636C53.1735 274.71 57.3295 287.797 67.6164 292.69C77.9033 297.583 83.5035 300 83.5035 300C83.5035 300 98.2412 306.75 104.903 294.518C108.086 288.623 151.326 195.51 151.326 195.51" fill="#74FAB9"/>
<path d="M119.847 197.603L86.569 267.636C86.569 267.636 69.5323 258.352 60.2771 267.636C53.1735 274.71 57.3295 287.797 67.6164 292.69C77.9033 297.583 83.5035 300 83.5035 300C83.5035 300 98.2412 306.75 104.903 294.518C108.086 288.623 151.326 195.51 151.326 195.51" stroke="#171717" stroke-width="5.89507" stroke-linecap="round" stroke-linejoin="round"/>
<path d="M92.9356 272.617L86.569 267.548" stroke="#171717" stroke-width="5.89507" stroke-linecap="round" stroke-linejoin="round"/>
<path d="M159.933 264.04H165.003" stroke="#171717" stroke-width="5.89507" stroke-linecap="round" stroke-linejoin="round"/>
<path d="M49.1943 116.634C52.1408 116.634 54.5293 112.952 54.5293 108.41C54.5293 103.868 52.1408 100.187 49.1943 100.187C46.2478 100.187 43.8593 103.868 43.8593 108.41C43.8593 112.952 46.2478 116.634 49.1943 116.634Z" fill="#171717"/>
<path d="M72.8336 116.634C75.7801 116.634 78.1686 112.952 78.1686 108.41C78.1686 103.868 75.7801 100.187 72.8336 100.187C69.8871 100.187 67.4986 103.868 67.4986 108.41C67.4986 112.952 69.8871 116.634 72.8336 116.634Z" fill="#171717"/>
</g>
<defs>
<clipPath id="clip0_100_6251">
<rect width="242.906" height="316.506" fill="white"/>
</clipPath>
</defs>
</svg>
